<svg width="24" height="24" viewBox="0 0 24 24" fill="none" xmlns="http://www.w3.org/2000/svg">
<path fill-rule="evenodd" clip-rule="evenodd" d="M5.9864 5.98663C9.30136 2.67076 14.6975 2.67144 18.0137 5.98678C21.3296 9.30173 21.3289 14.6979 18.0136 18.0141C14.6985 21.3301 9.30149 21.3301 5.9864 18.0141L5.98633 18.014C2.67126 14.699 2.67116 9.3028 5.9864 5.98663ZM19.0743 4.92597C15.1725 1.02531 8.82664 1.02399 4.9256 4.92612C1.02487 8.82793 1.02474 15.1737 4.9256 19.0746C8.82651 22.9766 15.1735 22.9766 19.0744 19.0746C22.9751 15.1729 22.9764 8.82701 19.0743 4.92597ZM12 7.02148C12.4142 7.02148 12.75 7.35727 12.75 7.77148V12.8645C12.75 13.2787 12.4142 13.6145 12 13.6145C11.5858 13.6145 11.25 13.2787 11.25 12.8645V7.77148C11.25 7.35727 11.5858 7.02148 12 7.02148ZM12 17.0156C12.5523 17.0156 13 16.5679 13 16.0156C13 15.4633 12.5523 15.0156 12 15.0156C11.4477 15.0156 11 15.4633 11 16.0156C11 16.5679 11.4477 17.0156 12 17.0156Z" fill="#881D19"/>
</svg>
