<svg width="25" height="25" viewBox="0 0 25 25" fill="none" xmlns="http://www.w3.org/2000/svg">
<path d="M22.7621 24.5959L12.5013 14.334L2.24047 24.5959C1.99369 24.8218 1.66928 24.9437 1.33484 24.9363C1.0004 24.9289 0.681717 24.7927 0.445174 24.5561C0.208631 24.3195 0.0724721 24.0008 0.0650619 23.6663C0.0576516 23.3319 0.179561 23.0074 0.405395 22.7606L10.661 12.4987L0.402792 2.23938C0.277466 2.11993 0.177282 1.97663 0.108127 1.81791C0.0389727 1.65918 0.00224356 1.48823 9.96106e-05 1.3151C-0.00204434 1.14197 0.0304401 0.97016 0.0956428 0.809769C0.160845 0.649376 0.257451 0.503637 0.37978 0.381123C0.502109 0.258606 0.647694 0.161785 0.807976 0.0963478C0.968259 0.0309105 1.14 -0.00182152 1.31312 7.82013e-05C1.48623 0.00197601 1.65721 0.0384674 1.81602 0.107405C1.97483 0.176342 2.11826 0.276333 2.23787 0.401503L12.5013 10.6608L22.7621 0.398901C23.0089 0.173042 23.3333 0.0511169 23.6678 0.0585289C24.0022 0.0659389 24.3209 0.202114 24.5574 0.438683C24.794 0.675251 24.9301 0.993971 24.9375 1.32845C24.945 1.66292 24.823 1.98736 24.5972 2.23417L14.3364 12.4961L24.5972 22.7606C24.7225 22.8801 24.8227 23.0234 24.8919 23.1821C24.961 23.3408 24.9978 23.5118 24.9999 23.6849C25.002 23.858 24.9696 24.0298 24.9044 24.1902C24.8392 24.3506 24.7425 24.4964 24.6202 24.6189C24.4979 24.7414 24.3523 24.8382 24.192 24.9037C24.0317 24.9691 23.86 25.0018 23.6869 24.9999C23.5138 24.998 23.3428 24.9615 23.184 24.8926C23.0252 24.8237 22.8817 24.7237 22.7621 24.5985V24.5959Z" fill="#BDBDBD"/>
</svg>
